# xmcd
#
# Track frame offsets:
# 150
# 14249
# 31583
# 43868
# 60053
# 75592
# 90857
# 105843
# 117708
# 132765
#
# Disc length: 1985 seconds
#
#
# Revision: 2
# Processed by: cddbd v1.5.1PL2 Copyright (c) Steve Scherf et al.
# Submitted via: FreeRIP 2.944 
#
DISCID=6c07bf0a
DTITLE=Neal Mccoy - Greatest Hits
DYEAR=1997
DGENRE=Country
TTITLE0=Now I Pray For Rain
TTITLE1=No Doubt About It
TTITLE2=Wink
TTITLE3=The City Put The Country Back In Me
TTITLE4=For A Change
TTITLE5=They're Playin' Our Song
TTITLE6=If I Was A Drinkin' Man
TTITLE7=You Gotta Love That
TTITLE8=Then You Can Tell Me Goodbye
TTITLE9=The Shake
EXTD=
EXTT0=
EXTT1=
EXTT2=
EXTT3=
EXTT4=
EXTT5=
EXTT6=
EXTT7=
EXTT8=
EXTT9=
PLAYORDER=
